PathFileType	4	(X/Y/Z)	C:/Users/opensim2020/Desktop/walking_exp_matlab/subject06_walking17_straight_04.trc																																																																																																																																					
DataRate	CameraRate	NumFrames	NumMarkers	Units	OrigDataRate	OrigDataStartFrame	OrigNumFrames																																																																																																																																	
100	100	4	45	mm	100	4365	318																																																																																																																																	
Frame#	Time	LFHD			RFHD			LBHD			RBHD			C7			T10			CLAV			STRN			RBAK			LSHO			LUPA			LELB			LFRM			LWRA			LWRB			LFIN			RSHO			RUPA			RELB			RFRM			RWRA			RWRB			RFIN			LASI			RASI			LPSI			RPSI			LTHI			LKNE			LTIB			LANK			LHEE			LTOE			RTHI			RKNE			RTIB			RANK			RHEE			RTOE			*39			*40			*41			*42			*43			*44		
		X1	Y1	Z1	X2	Y2	Z2	X3	Y3	Z3	X4	Y4	Z4	X5	Y5	Z5	X6	Y6	Z6	X7	Y7	Z7	X8	Y8	Z8	X9	Y9	Z9	X10	Y10	Z10	X11	Y11	Z11	X12	Y12	Z12	X13	Y13	Z13	X14	Y14	Z14	X15	Y15	Z15	X16	Y16	Z16	X17	Y17	Z17	X18	Y18	Z18	X19	Y19	Z19	X20	Y20	Z20	X21	Y21	Z21	X22	Y22	Z22	X23	Y23	Z23	X24	Y24	Z24	X25	Y25	Z25	X26	Y26	Z26	X27	Y27	Z27	X28	Y28	Z28	X29	Y29	Z29	X30	Y30	Z30	X31	Y31	Z31	X32	Y32	Z32	X33	Y33	Z33	X34	Y34	Z34	X35	Y35	Z35	X36	Y36	Z36	X37	Y37	Z37	X38	Y38	Z38	X39	Y39	Z39	X40	Y40	Z40	X41	Y41	Z41	X42	Y42	Z42	X43	Y43	Z43	X44	Y44	Z44	X45	Y45	Z45
																																																																																																																																								
80	0.79	-897.75256	1672.34827	-1557.97681	-903.98102	1657.05237	-1427.40857	-1028.66199	1613.00208	-1567.2522	-1033.36951	1603.32947	-1438.99512	-1027.73413	1457.67273	-1512.39307	-1070.79553	1129.79736	-1499.75	-918.45062	1379.07715	-1508.50671	-881.73413	1202.50903	-1513.89868	-1104.26746	1290.00427	-1430.0282	-967.74518	1410.34009	-1670.29736	-942.90942	1213.16553	-1752.01575	-924.1228	1103.03357	-1771.79846	-853.19812	970.02246	-1789.49219	-769.77509	877.79095	-1736.073	-815.9364	856.53113	-1785.57056	-748.37646	794.65253	-1778.6803	-965.21527	1414.98718	-1349.50684	-1004.66144	1217.97461	-1259.49695	-995.57135	1096.6261	-1245.11182	-973.82379	978.6416	-1225.79749	-903.62903	843.76733	-1253.84534	-958.4621	841.98669	-1214.87915	-916.45636	769.07166	-1210.3158	-888.00256	964.89001	-1601.83362	-894.46881	979.84875	-1381.47729	-1047.17627	993.79993	-1574.89368	-1046.37183	997.00323	-1406.75952	-969.21021	650.88702	-1643.38794	-984.09967	487.74991	-1617.59509	-1052.11279	240.09663	-1596.88904	-1081.58435	71.15288	-1548.31213	-1121.56348	59.78327	-1501.46484	-938.41058	41.89101	-1551.9928	-880.07153	651.83081	-1313.97241	-837.26489	532.97095	-1336.19312	-897.76056	276.11551	-1344.31506	-922.29907	92.22945	-1388.82593	-954.84912	68.89915	-1441.18311	-778.87036	45.27288	-1366.97791	-1002.38361	1704.92212	-1503.11804	NaN	NaN	NaN	NaN	NaN	NaN	NaN	NaN	NaN	NaN	NaN	NaN	NaN	NaN	NaN
81	0.8	-891.27606	1671.83936	-1557.79919	-897.62421	1656.37073	-1427.29102	-1022.2326	1612.56628	-1567.2865	-1027.02856	1602.71533	-1439.01526	-1021.45508	1457.27185	-1512.54211	-1065.11072	1129.43518	-1500.07507	-912.27911	1378.51733	-1508.80676	-877.88519	1201.90515	-1514.40015	-1098.25635	1289.70044	-1430.16345	-961.66803	1409.84143	-1670.52527	-935.96466	1212.82385	-1752.23035	-916.11371	1102.90344	-1772.03296	-843.36298	970.95361	-1789.47607	-758.15906	880.27881	-1735.51123	-804.28815	857.93829	-1784.79492	-735.66504	797.28607	-1777.73804	-958.85693	1414.43335	-1349.76404	-998.83301	1217.61328	-1259.72534	-990.07007	1096.12366	-1245.49512	-968.55011	978.06561	-1226.17261	-898.66907	842.99591	-1254.17676	-953.50153	841.47827	-1215.25867	-911.32715	768.48676	-1210.78259	-882.26147	964.3811	-1602.35925	-890.03949	979.38171	-1382.54553	-1041.47681	993.15863	-1575.42139	-1040.74585	996.54688	-1407.29065	-964.2724	650.29187	-1643.56372	-979.60358	487.26294	-1617.53833	-1049.94897	240.073	-1596.71179	-1081.19727	71.4688	-1548.32471	-1121.36218	60.29803	-1501.51172	-938.25989	41.84456	-1551.85364	-874.83026	651.44513	-1314.07434	-831.5108	532.73743	-1336.8042	-882.63489	273.93167	-1344.39856	-899.82312	89.14429	-1388.65759	-932.32074	65.09957	-1440.51318	-754.45074	45.70911	-1369.42517	-995.94324	1704.40381	-1503.03833	NaN	NaN	NaN	NaN	NaN	NaN	NaN	NaN	NaN	NaN	NaN	NaN	NaN	NaN	NaN
82	0.81	-884.79498	1671.29834	-1557.60583	-891.25751	1655.65161	-1427.10083	-1015.75623	1612.13647	-1567.14685	-1020.64874	1602.12817	-1438.9895	-1015.34778	1456.92139	-1512.83313	-1059.36316	1129.06653	-1500.46753	-906.16241	1377.90479	-1509.05762	-872.02887	1201.26099	-1514.82739	-1092.18604	1289.46631	-1430.1532	-955.58752	1409.38855	-1670.68359	-929.12427	1212.49182	-1752.27649	-908.25537	1102.64172	-1772.04224	-833.75031	971.77893	-1789.07605	-746.9859	882.74384	-1734.93701	-792.9494	859.3595	-1783.8512	-723.38678	799.82129	-1776.74854	-952.17773	1413.78662	-1349.79065	-992.70917	1216.95569	-1260.08008	-984.39563	1095.63318	-1245.83105	-963.15265	977.50226	-1226.46216	-893.24408	842.45459	-1254.44971	-948.30981	840.81464	-1215.63403	-906.36646	767.78674	-1211.10339	-876.44586	963.80737	-1602.84509	-884.21198	979.01129	-1383.03833	-1035.71155	992.50787	-1575.94446	-1034.98926	996.07428	-1407.8302	-959.41388	649.72485	-1643.68945	-975.08917	486.81735	-1617.6814	-1047.63513	240.04366	-1596.60986	-1080.92786	71.85515	-1548.34558	-1121.17114	60.86755	-1501.56396	-938.14777	41.80918	-1551.69788	-869.51862	650.64905	-1314.35742	-825.85419	532.315	-1337.37854	-867.61389	271.96835	-1344.56714	-877.63678	86.71432	-1388.35205	-911.61438	63.25948	-1438.2074	-730.51666	46.19612	-1372.41956	-989.43665	1703.88574	-1502.86499	NaN	NaN	NaN	NaN	NaN	NaN	NaN	NaN	NaN	NaN	NaN	NaN	NaN	NaN	NaN
83	0.82	-878.31879	1670.72314	-1557.43298	-884.87555	1654.92322	-1426.92505	-1009.38055	1611.76318	-1567.10181	-1014.28693	1601.58545	-1438.87329	-1009.1684	1456.45093	-1512.83203	-1053.55505	1128.67957	-1500.84998	-899.96826	1377.28235	-1509.23669	-866.58783	1200.474	-1515.25476	-1086.11206	1289.1709	-1430.2395	-949.53235	1408.94287	-1670.75098	-922.33051	1212.16162	-1752.27551	-900.56146	1102.42847	-1771.9978	-824.25238	972.4585	-1788.32971	-736.08875	885.11707	-1734.22278	-781.66028	860.37952	-1782.38037	-711.52161	802.2132	-1775.58398	-945.7312	1413.18066	-1349.97839	-986.57965	1216.43298	-1260.20801	-978.5885	1095.04663	-1246.09473	-957.59088	976.87781	-1226.75415	-888.03168	841.64862	-1254.78369	-943.12207	840.16101	-1215.96265	-901.05255	766.9491	-1211.63733	-870.90338	963.24164	-1603.45105	-877.16815	978.79333	-1382.95227	-1029.87842	991.94025	-1576.52258	-1029.07214	995.61212	-1408.47681	-954.50708	649.10034	-1643.8584	-970.57465	486.21484	-1617.6875	-1045.35913	240.02901	-1596.5968	-1080.64893	72.24179	-1548.2915	-1121.0061	61.44183	-1501.68408	-937.99811	41.70123	-1551.55908	-864.31763	650.27985	-1314.27051	-820.31323	531.79999	-1337.98389	-852.70441	270.32657	-1344.7843	-856.2442	85.01984	-1387.24878	-887.9707	59.50243	-1439.09265	-707.47656	47.14986	-1374.52722	-982.96356	1703.34436	-1502.60547	NaN	NaN	NaN	NaN	NaN	NaN	NaN	NaN	NaN	NaN	NaN	NaN	NaN	NaN	NaN
